<?xml version="1.0" encoding="iso-8859-1"?>
<!-- Generator: Adobe Illustrator 21.0.0, SVG Export Plug-In . SVG Version: 6.00 Build 0)  -->
<svg xmlns="http://www.w3.org/2000/svg" xmlns:xlink="http://www.w3.org/1999/xlink" version="1.1" id="Capa_1" x="0px" y="0px" viewBox="0 0 512 512" style="enable-background:new 0 0 512 512;" xml:space="preserve" width="512" height="512">
<g>
	<path d="M512,313.608V198.393l-48.417-9.399c-3.576-11.05-8.04-21.812-13.342-32.161l27.656-40.89l-81.388-81.554l-40.944,27.572   c-10.467-5.389-21.363-9.922-32.559-13.543L313.608,0H198.392l-9.399,48.418c-11.049,3.575-21.811,8.039-32.161,13.342   l-40.89-27.657L34.389,115.49l27.571,40.945c-5.39,10.469-9.922,21.365-13.543,32.558L0,198.393v115.216l48.417,9.399   c3.575,11.049,8.04,21.811,13.342,32.161L34.103,396.06l81.388,81.553l40.944-27.572c10.469,5.39,21.363,9.922,32.558,13.543   L198.392,512h115.216l9.399-48.417c11.049-3.575,21.811-8.04,32.161-13.342l40.891,27.656l81.553-81.388l-27.572-40.944   c5.389-10.468,9.921-21.363,13.542-32.558L512,313.608z M258.083,415.015c-87.681,0-159.014-71.334-159.014-159.015   S170.402,96.986,258.083,96.986S417.097,168.319,417.097,256S345.763,415.015,258.083,415.015z"/>
	<path d="M258.083,126.986c-71.139,0-129.014,57.875-129.014,129.014s57.875,129.015,129.014,129.015S387.097,327.139,387.097,256   S329.221,126.986,258.083,126.986z M215.876,289.289l-22.388,19.969L145.982,256l47.506-53.258l22.388,19.971L186.184,256   L215.876,289.289z M247.926,348.756l-29.012-7.637l46.819-177.874l29.012,7.637L247.926,348.756z M322.676,309.258l-22.388-19.969   L329.981,256l-29.693-33.287l22.388-19.971L370.183,256L322.676,309.258z"/>
</g>















</svg>
